:SAMPLES-PER-SECOND 30
:FULLY-SPECIFIED
:DEGREES
185
root  14.2105 39.0494 -7.27461 -177.536 -83.8096 170.914
RightUpLeg  -12.7965 -8.10095 -9.8565
RightLeg  24.7979 0.704763 0.130887
RightFoot  -3.58223 -0.333908 4.56044
RightToes  0.00048216 0.542163 -0.142577
Spine  20.463 0.561306 -0.657345
Spine1  5.1118 1.41524 -3.76831
HEad  -17.5015 7.31732 2.06096
LeftShoulder1  9.33912 -13.5648 -47.76
LeftArm  -6.76125 11.4442 -21.5221
LeftForeArm  31.0939 -21.0894 -3.38752
LeftHand  -0.25398 0.0180481 5.50724
RightShoulder  6.57299 10.7088 40.1034
RightArm  -2.93803 -1.97651 31.8349
RightForeArm  18.6257 45.8421 10.224
RightHand  -2.64658 10.0506 -20.1587
LeftUpLeg  -10.4849 12.2571 6.85792
LeftLeg  26.3559 4.78706 2.91665
LeftFoot  -6.72709 0.202804 -4.03148
LeftToes  1.06241e-005 4.65855e-005 -8.18508e-006
186
root  14.3852 38.9264 -7.26961 -177.803 -83.4839 171.182
RightUpLeg  -13.7372 -7.69436 -9.75651
RightLeg  25.8708 0.599172 0.0896324
RightFoot  -3.79945 -0.3296 4.6041
RightToes  0.00048216 0.542163 -0.142577
Spine  21.046 0.518988 -0.738854
Spine1  4.92155 1.31337 -3.63313
HEad  -17.8674 7.76176 1.9289
LeftShoulder1  9.34707 -13.5972 -47.7087
LeftArm  -6.63793 10.8423 -21.4252
LeftForeArm  31.3833 -21.6702 -3.34386
LeftHand  -0.25398 0.0180481 5.50724
RightShoulder  6.62823 10.7698 40.2826
RightArm  -3.14006 -1.60036 31.4952
RightForeArm  19.2159 46.5939 10.4741
RightHand  -2.71827 10.2403 -20.443
LeftUpLeg  -11.2874 12.4772 6.87712
LeftLeg  27.4732 4.81625 3.05634
LeftFoot  -6.97741 0.198291 -4.10283
LeftToes  1.06241e-005 4.65855e-005 -8.18508e-006
187
root  14.6032 38.7584 -7.26327 -177.216 -83.0971 170.439
RightUpLeg  -14.8272 -7.2651 -9.82957
RightLeg  27.4163 0.669322 0.146542
RightFoot  -4.324 -0.326654 4.84118
RightToes  0.00048216 0.542163 -0.142577
Spine  21.9289 0.48226 -1.09915
Spine1  4.71298 1.15884 -3.49118
HEad  -18.4971 8.19519 2.04622
LeftShoulder1  9.27578 -13.5803 -47.3871
LeftArm  -6.72938 10.0423 -21.3437
LeftForeArm  31.6586 -22.0858 -3.31645
LeftHand  -0.25398 0.0180481 5.50724
RightShoulder  6.6595 10.8226 40.3271
RightArm  -3.02276 -1.1017 31.2569
RightForeArm  19.3935 46.7067 10.5064
RightHand  -2.81607 10.5743 -20.7247
LeftUpLeg  -12.1196 12.7184 6.81123
LeftLeg  28.8754 4.85624 3.24065
LeftFoot  -7.38502 0.194597 -4.34503
LeftToes  1.06241e-005 4.65855e-005 -8.18508e-006
188
root  14.8244 38.5252 -7.25917 -175.344 -82.2307 168.113
RightUpLeg  -16.0244 -6.4798 -10.2083
RightLeg  29.6017 0.734343 0.212897
RightFoot  -5.46845 -0.311659 5.34868
RightToes  0.00048216 0.542163 -0.142577
Spine  22.8691 0.737235 -1.59135
Spine1  4.76861 1.36838 -3.69057
HEad  -19.8551 8.26008 2.43958
LeftShoulder1  9.41346 -13.8484 -47.3456
LeftArm  -6.63862 8.62692 -20.735
LeftForeArm  30.8189 -21.636 -3.37759
LeftHand  -0.25398 0.0180481 5.50724
RightShoulder  6.72608 10.9533 40.3648
RightArm  -2.45355 -0.668689 30.6144
RightForeArm  18.6005 46.5276 10.4938
RightHand  -2.98918 11.0888 -21.2872
LeftUpLeg  -12.6549 12.9586 6.60677
LeftLeg  30.6566 5.09545 3.60606
LeftFoot  -8.41214 0.179845 -5.0925
LeftToes  1.06241e-005 4.65855e-005 -8.18508e-006
189
root  14.9511 38.1923 -7.2446 -174.746 -80.5851 166.307
RightUpLeg  -16.784 -4.96288 -10.7584
RightLeg  32.4969 0.620179 0.178025
RightFoot  -7.50331 -0.263976 6.39737
RightToes  0.00048216 0.542163 -0.142577
Spine  23.4455 1.34341 -1.73267
Spine1  5.33739 2.12316 -4.237
HEad  -21.3216 8.12736 2.73676
LeftShoulder1  9.79944 -14.4452 -47.6548
LeftArm  -6.20144 6.68794 -20.0012
LeftForeArm  29.1352 -19.7855 -3.69964
LeftHand  -0.25398 0.0180481 5.50724
RightShoulder  6.91906 11.275 40.6399
RightArm  -0.690142 -0.199701 28.8246
RightForeArm  16.7667 45.8816 10.3764
RightHand  -3.17408 11.6213 -21.8782
LeftUpLeg  -12.3125 13.4062 6.63618
LeftLeg  33.2204 5.48339 4.21538
LeftFoot  -10.543 0.105907 -6.41127
LeftToes  1.06241e-005 4.65855e-005 -8.18508e-006
190
root  14.8514 37.7393 -7.18317 -177.588 -78.6248 166.52
RightUpLeg  -16.0893 -3.31635 -11.3358
RightLeg  36.1558 0.732728 0.319538
RightFoot  -10.4413 -0.131705 7.91152
RightToes  0.00048216 0.542163 -0.142577
Spine  23.1522 1.87264 -1.18804
Spine1  6.50251 2.86186 -4.30236
HEad  -21.1863 8.51459 2.65157
LeftShoulder1  10.0853 -14.8365 -48.0047
LeftArm  -5.40587 5.09905 -20.0808
LeftForeArm  29.3353 -17.1239 -4.4351
LeftHand  -0.25398 0.0180481 5.50724
RightShoulder  7.12416 11.6152 40.9279
RightArm  2.5445 0.128538 26.0294
RightForeArm  15.0477 44.6138 10.0191
RightHand  -3.12938 11.7329 -21.4432
LeftUpLeg  -10.4239 13.8797 7.3237
LeftLeg  36.8986 5.87547 5.09195
LeftFoot  -13.645 -0.0729339 -7.69074
LeftToes  1.06241e-005 4.65855e-005 -8.18508e-006
